<?xml version="1.0" encoding="utf-8"?>
<!-- Generator: Adobe Illustrator 25.4.1, SVG Export Plug-In . SVG Version: 6.00 Build 0)  -->
<svg version="1.1" id="Layer_1" xmlns="http://www.w3.org/2000/svg" xmlns:xlink="http://www.w3.org/1999/xlink" x="0px" y="0px"
	 viewBox="0 0 256 256" style="enable-background:new 0 0 256 256;" xml:space="preserve">
<style type="text/css">
	.st0{fill:#FFFFFF;}
	.st1{fill:#497C9F;}
	.st2{fill:#406E8F;}
</style>
<g>
	<path id="XMLID_00000026129770012736905250000010264722361545039030_" class="st0" d="M173.66,100.99c-1.22,0-2.35,0.27-3.39,0.73
		c-2.82,1.29-4.79,4.14-4.79,7.45c0,3.37,2.04,6.27,4.94,7.51c1,0.42,2.08,0.66,3.24,0.66c4.52,0,8.18-3.66,8.18-8.18
		C181.84,104.66,178.18,100.99,173.66,100.99z M173.66,113.73c-2.5,0-4.54-2.04-4.54-4.57c0-2.5,2.04-4.54,4.54-4.54
		c2.53,0,4.57,2.04,4.57,4.54C178.23,111.69,176.19,113.73,173.66,113.73z"/>
	<path class="st0" d="M90.58,90.63c0-0.01,0.01-0.03,0.01-0.04c0-0.01,0.01-0.02,0.01-0.03C90.59,90.58,90.58,90.6,90.58,90.63z"/>
	<path class="st0" d="M90.15,92.15c0.07-0.32,0.15-0.63,0.24-0.94c0.01-0.04,0.02-0.09,0.03-0.13c-0.07,0.21-0.12,0.42-0.19,0.64
		c-0.05,0.19-0.08,0.4-0.12,0.59C90.12,92.26,90.14,92.21,90.15,92.15z"/>
	<path class="st0" d="M89.95,93.11c-0.02,0.09-0.02,0.19-0.04,0.28C89.92,93.3,89.93,93.2,89.95,93.11z"/>
	<path class="st0" d="M93.08,85.84c0.1-0.13,0.19-0.26,0.29-0.39C93.26,85.58,93.17,85.71,93.08,85.84z"/>
	<path class="st0" d="M90.75,90.15c0.02-0.04,0.03-0.09,0.05-0.13c-0.02,0.04-0.04,0.08-0.06,0.13c0,0,0,0,0,0H90.75z"/>
	<path class="st0" d="M94.84,83.79c0.12-0.11,0.24-0.22,0.36-0.33C95.08,83.57,94.96,83.67,94.84,83.79z"/>
	<path class="st0" d="M99.53,80.53c-0.21,0.1-0.42,0.2-0.63,0.3C99.1,80.73,99.32,80.63,99.53,80.53z"/>
	<path class="st0" d="M152.78,144.78v-31.03c0-0.32-0.03-0.63-0.09-0.93c0.06,0.3,0.09,0.61,0.09,0.92L152.78,144.78L152.78,144.78z
		"/>
	<path class="st0" d="M104.52,79.05c-0.24,0.03-0.48,0.07-0.71,0.11C104.04,79.11,104.28,79.08,104.52,79.05z"/>
	<path class="st0" d="M101.69,79.67c-0.18,0.06-0.36,0.13-0.54,0.2C101.33,79.8,101.5,79.72,101.69,79.67z"/>
	<path class="st0" d="M97.1,81.92c-0.17,0.12-0.33,0.25-0.5,0.38C96.76,82.17,96.93,82.04,97.1,81.92z"/>
	<path id="XMLID_00000074403319612887932920000015849636046732197803_" class="st1" d="M173.66,100.99c-1.22,0-2.35,0.27-3.39,0.73
		c-2.82,1.29-4.79,4.14-4.79,7.45c0,3.37,2.04,6.27,4.94,7.51c1,0.42,2.08,0.66,3.24,0.66c4.52,0,8.18-3.66,8.18-8.18
		C181.84,104.66,178.18,100.99,173.66,100.99z M173.66,113.73c-2.5,0-4.54-2.04-4.54-4.57c0-2.5,2.04-4.54,4.54-4.54
		c2.53,0,4.57,2.04,4.57,4.54C178.23,111.69,176.19,113.73,173.66,113.73z"/>
	<path id="XMLID_00000153683002419913877080000013423551724681285790_" class="st1" d="M183.08,99.5c-1.53-1.51-3.39-2.64-5.5-3.28
		c-0.6-0.18-1.22-0.31-1.84-0.42c-0.09-0.02-0.18-0.02-0.29-0.04c-0.24-0.04-0.49-0.07-0.73-0.09c-0.35-0.02-0.73-0.04-1.11-0.04
		c-7.43,0-13.45,6.03-13.45,13.48c0,0.58,0.04,1.17,0.11,1.73l0.02,0.02c0.16,1.31,0.51,2.57,1.04,3.72
		c2.08,4.7,6.8,7.98,12.28,7.98c0.38,0,0.75-0.02,1.11-0.04c0.24-0.02,0.49-0.04,0.73-0.09c0.13,0,0.27-0.02,0.38-0.07
		c0.24-0.02,0.47-0.07,0.71-0.11c0.35-0.09,0.69-0.18,1.04-0.29c2.11-0.64,3.97-1.77,5.5-3.28c2.48-2.44,4.01-5.83,4.01-9.58
		S185.57,101.94,183.08,99.5z M174.84,120.76c-0.38,0.04-0.78,0.07-1.17,0.07c-6.41,0-11.64-5.23-11.64-11.66
		c0-6.41,5.23-11.64,11.64-11.64c0.31,0,0.6,0.02,0.89,0.04c3.52,0.24,6.58,2.08,8.53,4.77c1.42,1.91,2.24,4.28,2.24,6.83
		c0,2.57-0.82,4.94-2.24,6.85C181.18,118.63,178.23,120.42,174.84,120.76z"/>
	<path id="XMLID_00000008124784191098819960000017228344148416903328_" class="st2" d="M170.27,101.72
		c-1.4,2.13-2.19,4.65-2.19,7.38c0,2.81,0.86,5.43,2.35,7.58c-2.9-1.24-4.94-4.14-4.94-7.51C165.48,105.86,167.46,103,170.27,101.72
		z"/>
	<path id="XMLID_00000138533547840327836490000015477757519505114516_" class="st2" d="M174.84,120.76c0.84,0.49,1.77,0.91,2.75,1.2
		c-0.35,0.11-0.69,0.2-1.04,0.29c-0.24,0.04-0.47,0.09-0.71,0.11c-0.11,0.04-0.24,0.07-0.38,0.07c-0.24,0.04-0.49,0.07-0.73,0.09
		c-0.35,0.02-0.73,0.04-1.11,0.04c-5.48,0-10.2-3.28-12.28-7.98c-0.53-1.15-0.89-2.42-1.04-3.72l-0.02-0.02
		c-0.07-0.55-0.11-1.15-0.11-1.73c0-7.45,6.03-13.48,13.45-13.48c0.38,0,0.75,0.02,1.11,0.04c0.24,0.02,0.49,0.04,0.73,0.09
		c0.11,0.02,0.2,0.02,0.29,0.04c0.62,0.11,1.24,0.24,1.84,0.42c-1.09,0.33-2.11,0.8-3.04,1.35c-0.29-0.02-0.58-0.04-0.89-0.04
		c-6.41,0-11.64,5.23-11.64,11.64c0,6.43,5.23,11.66,11.64,11.66C174.06,120.82,174.46,120.8,174.84,120.76z"/>
	<path class="st0" d="M173.66,97.53c0.31,0,0.6,0.02,0.89,0.04c3.52,0.24,6.58,2.08,8.53,4.77v-6.3c0-9.49-7.67-17.18-17.16-17.18
		h-59.07c-0.07,0-0.14,0.02-0.22,0.02c0.07,0,0.15-0.01,0.22-0.01h8.54c-7.41,0-13.7,4.7-16.11,11.28h2.6
		c1.63,0,2.95,1.32,2.95,2.95v19.09c0,1.63-1.32,2.95-2.95,2.95v0h-3.66v3.82c0,2.91,2.36,5.26,5.26,5.26h-8.54
		c-1.2,0-2.3-0.42-3.18-1.1c0.88,0.68,1.98,1.1,3.18,1.1h19.79c2.9,0,5.25-2.37,5.25-5.28v-5.21c0-2.53,2.06-4.57,4.59-4.57h23.61
		c1.35,0,2.54,0.58,3.37,1.49c-0.84-0.91-2.03-1.49-3.36-1.49h8.54c2.53,0,4.58,2.05,4.58,4.58v31.03h21.75v-28.77
		c-1.91,2.62-4.85,4.41-8.25,4.74c-0.38,0.04-0.78,0.07-1.17,0.07c-6.41,0-11.64-5.23-11.64-11.66
		C162.03,102.76,167.26,97.53,173.66,97.53z M115.67,94.07c0,1-0.81,1.81-1.81,1.81c-1,0-1.81-0.81-1.81-1.81v-3.84
		c0-1,0.81-1.81,1.81-1.81c1,0,1.81,0.81,1.81,1.81V94.07z M121.71,94.07c0,1-0.81,1.81-1.81,1.81c-1,0-1.81-0.81-1.81-1.81v-3.84
		c0-1,0.81-1.81,1.81-1.81c1,0,1.81,0.81,1.81,1.81V94.07z M127.75,94.07c0,1-0.81,1.81-1.81,1.81c-1,0-1.81-0.81-1.81-1.81v-3.84
		c0-1,0.81-1.81,1.81-1.81c1,0,1.81,0.81,1.81,1.81V94.07z M133.8,94.07c0,1-0.81,1.81-1.81,1.81c-1,0-1.81-0.81-1.81-1.81v-3.84
		c0-1,0.81-1.81,1.81-1.81c1,0,1.81,0.81,1.81,1.81V94.07z"/>
	<path id="XMLID_00000022549345000409289960000001414087941362871730_" class="st0" d="M173.66,100.99c-1.22,0-2.35,0.27-3.39,0.73
		c-2.82,1.29-4.79,4.14-4.79,7.45c0,3.37,2.04,6.27,4.94,7.51c1,0.42,2.08,0.66,3.24,0.66c4.52,0,8.18-3.66,8.18-8.18
		C181.84,104.66,178.18,100.99,173.66,100.99z M173.66,113.73c-2.5,0-4.54-2.04-4.54-4.57c0-2.5,2.04-4.54,4.54-4.54
		c2.53,0,4.57,2.04,4.57,4.54C178.23,111.69,176.19,113.73,173.66,113.73z"/>
	<g>
		<path class="st0" d="M103.32,143.39h3.32c1.2-0.18,2.34-0.54,3.39-1.06h-10.1C100.98,142.85,102.12,143.21,103.32,143.39z"/>
		<path class="st0" d="M184.94,166.66v-5.79c0-1-0.8-1.82-1.82-1.82c-0.02,0-0.02,0-0.04,0c-0.98,0.02-1.75,0.84-1.75,1.82v5.74
			h-58.14v3.64h61.22c0.49,0,0.91,0.42,0.91,0.91v4.72c0,0.49-0.42,0.91-0.91,0.91h-61.22v3.61h61.22c2.5,0,4.54-2.04,4.54-4.52
			v-4.72C188.96,168.83,187.21,166.93,184.94,166.66z"/>
		<path class="st0" d="M86.77,176.79H74.36c-0.51,0-0.93-0.42-0.93-0.91v-4.72c0-0.49,0.42-0.91,0.93-0.91h12.41v-3.64H77.8v-6.08
			l-3.64-5v11.1c-2.42,0.09-4.34,2.08-4.34,4.52v4.72c0,2.5,2.02,4.52,4.52,4.52h12.44V176.79z"/>
		<path class="st0" d="M95,126.12h1.46v1.75c0,2.64,2.15,4.79,4.79,4.79h1.84v1.42h-1c-1,0-1.82,0.82-1.82,1.82
			c0,1,0.82,1.82,1.82,1.82h1v1.75c0,1,0.8,1.82,1.82,1.82c1,0,1.8-0.82,1.8-1.82v-1.75h1c1,0,1.82-0.82,1.82-1.82
			c0-1-0.82-1.82-1.82-1.82h-1v-1.42h1.82c2.66,0,4.81-2.15,4.81-4.79v-1.75h1.46c3.9,0,7.07-3.17,7.07-7.07v-5.21
			c0-1.53,1.24-2.77,2.77-2.77h0.93c1,0,1.8-0.8,1.8-1.82v-0.07c-0.04-0.98-0.82-1.73-1.8-1.73h-0.93c-3.52,0-6.41,2.88-6.41,6.41
			v5.19c0,1.91-1.55,3.46-3.46,3.46H95c-1.91,0-3.44-1.53-3.44-3.44v-2.04h6.67h3.7c2.64,0,4.77-2.13,4.77-4.77V93.18
			c0-2.62-2.13-4.77-4.77-4.77h-1.91h-6.41c2.68-4.57,7.62-7.65,13.28-7.65h59.07c8.4,0,15.25,6.78,15.36,15.18
			c-2.39-1.4-5.05-2.06-7.67-2.06c-8.42,0-15.27,6.85-15.27,15.27c0,0.11,0,0.22,0.02,0.33c0.04,3.24,1.13,6.21,2.93,8.64
			c2.77,3.81,7.25,6.29,12.32,6.29c2.68,0,5.32-0.69,7.67-2.04v19.93h-26.69v-28.48c0-1.84-0.78-3.48-2.02-4.65
			c-1.15-1.09-2.68-1.73-4.39-1.73h-16.42c-1,0-1.77,0.75-1.82,1.73v0.07c0,1.02,0.8,1.82,1.82,1.82h16.42
			c1.53,0,2.77,1.24,2.77,2.77v28.48h-16.49l4.54,3.64h42.28v6.45c0,0.98,0.78,1.8,1.75,1.82c0.02,0,0.02,0,0.04,0
			c1.02,0,1.82-0.82,1.82-1.82v-32.96c2.48-2.7,4.01-6.32,4.01-10.28c0-3.95-1.53-7.56-4.01-10.28v-2.77
			c0-8.71-5.92-16.09-13.96-18.29c0.16-0.44,0.24-0.91,0.24-1.4V64.74c0-2.39-1.95-4.34-4.37-4.34h-1.62v-2.02
			c0-1-0.8-1.82-1.82-1.82c-1,0-1.8,0.82-1.8,1.82v2.02h-1.62c-2.42,0-4.37,1.95-4.37,4.34v5.79H106.7v-0.82c0-1-0.8-1.8-1.82-1.8
			c-1,0-1.8,0.8-1.8,1.8v0.82h-0.07c-1.02,0-1.82,0.82-1.82,1.82s0.8,1.82,1.82,1.82h0.07v3.37c-8.67,1.77-15.16,9.44-15.16,18.57
			v22.94C87.93,122.95,91.1,126.12,95,126.12z M100.09,126.12h9.6v1.75c0,0.62-0.53,1.15-1.17,1.15h-7.27
			c-0.62,0-1.15-0.53-1.15-1.15V126.12z M183.08,102.34c1.42,1.91,2.24,4.28,2.24,6.83c0,2.57-0.82,4.94-2.24,6.85
			c-1.91,2.62-4.85,4.41-8.25,4.74c-0.38,0.04-0.78,0.07-1.17,0.07c-6.41,0-11.64-5.23-11.64-11.66c0-6.41,5.23-11.64,11.64-11.64
			c0.31,0,0.6,0.02,0.89,0.04C178.07,97.82,181.13,99.66,183.08,102.34z M159.28,64.74c0-0.38,0.33-0.71,0.73-0.71h6.85
			c0.4,0,0.73,0.33,0.73,0.71v11.68c0,0.4-0.33,0.71-0.73,0.71c-3.92,0-2.95,0-6.85,0c-0.4,0-0.73-0.31-0.73-0.71V64.74z
			 M106.7,74.16h48.94v2.26c0,0.24,0.02,0.49,0.07,0.71H106.7V74.16z M91.56,96.11c0-1.31,0.16-2.66,0.55-4.06h6.58h3.24
			c0.64,0,1.15,0.51,1.15,1.13v19.08c0,0.64-0.51,1.15-1.15,1.15h-3.7h-6.67V96.11z"/>
	</g>
	<path id="XMLID_00000139266087013717799980000004773543928886720181_" class="st0" d="M124.3,199.43H85.67v-41.42l-7.75,4.57
		l-10.87-14.94l16.13-12.92h11.86l0.26,0.75c1.4,4.15,5.3,6.95,9.68,6.95c4.39,0,8.28-2.79,9.69-6.95l0.26-0.75h11.86l16.13,12.92
		l-11.26,15.48l-7.36-5.05V199.43z M87.88,197.22h34.2v-39.89c0-0.68,0.37-1.3,0.97-1.61c0.6-0.32,1.32-0.28,1.89,0.11l6.2,4.25
		l8.75-12.03l-13.88-11.11h-9.52c-1.91,4.64-6.44,7.7-11.5,7.7s-9.6-3.06-11.5-7.7h-9.52l-13.87,11.11l8.44,11.6l6.56-3.86
		c0.5-0.34,1.22-0.39,1.82-0.07c0.6,0.32,0.97,0.94,0.97,1.61V197.22z"/>
	<path id="XMLID_00000168816504248232066430000001667834034949871751_" class="st0" d="M119.65,194.78h-3.16
		c-0.28,0-0.51-0.23-0.51-0.51s0.23-0.51,0.51-0.51h2.15v-0.89c0-0.28,0.23-0.51,0.51-0.51c0.28,0,0.51,0.23,0.51,0.51V194.78z
		 M112.44,194.78h-4.05c-0.28,0-0.51-0.23-0.51-0.51s0.23-0.51,0.51-0.51h4.05c0.28,0,0.51,0.23,0.51,0.51
		S112.72,194.78,112.44,194.78z M104.34,194.78h-4.05c-0.28,0-0.51-0.23-0.51-0.51s0.23-0.51,0.51-0.51h4.05
		c0.28,0,0.51,0.23,0.51,0.51S104.62,194.78,104.34,194.78z M96.24,194.78h-4.05c-0.28,0-0.51-0.23-0.51-0.51s0.23-0.51,0.51-0.51
		h4.05c0.28,0,0.51,0.23,0.51,0.51S96.52,194.78,96.24,194.78z M90.82,194.78c-0.28,0-0.51-0.23-0.51-0.51v-4.05
		c0-0.28,0.23-0.51,0.51-0.51c0.28,0,0.51,0.23,0.51,0.51v4.05C91.33,194.56,91.1,194.78,90.82,194.78z M119.14,189.34
		c-0.28,0-0.51-0.23-0.51-0.51v-4.05c0-0.28,0.23-0.51,0.51-0.51c0.28,0,0.51,0.23,0.51,0.51v4.05
		C119.65,189.11,119.42,189.34,119.14,189.34z M90.82,186.69c-0.28,0-0.51-0.23-0.51-0.51v-4.05c0-0.28,0.23-0.51,0.51-0.51
		c0.28,0,0.51,0.23,0.51,0.51v4.05C91.33,186.46,91.1,186.69,90.82,186.69z M119.14,181.24c-0.28,0-0.51-0.23-0.51-0.51v-4.05
		c0-0.28,0.23-0.51,0.51-0.51c0.28,0,0.51,0.23,0.51,0.51v4.05C119.65,181.01,119.42,181.24,119.14,181.24z M90.82,178.59
		c-0.28,0-0.51-0.23-0.51-0.51v-4.05c0-0.28,0.23-0.51,0.51-0.51c0.28,0,0.51,0.23,0.51,0.51v4.05
		C91.33,178.36,91.1,178.59,90.82,178.59z M119.14,173.14c-0.28,0-0.51-0.23-0.51-0.51v-4.05c0-0.28,0.23-0.51,0.51-0.51
		c0.28,0,0.51,0.23,0.51,0.51v4.05C119.65,172.92,119.42,173.14,119.14,173.14z M90.82,170.49c-0.28,0-0.51-0.23-0.51-0.51v-4.05
		c0-0.28,0.23-0.51,0.51-0.51c0.28,0,0.51,0.23,0.51,0.51v4.05C91.33,170.26,91.1,170.49,90.82,170.49z M119.14,165.04
		c-0.28,0-0.51-0.23-0.51-0.51v-4.05c0-0.28,0.23-0.51,0.51-0.51c0.28,0,0.51,0.23,0.51,0.51v4.05
		C119.65,164.82,119.42,165.04,119.14,165.04z M90.82,162.39c-0.28,0-0.51-0.23-0.51-0.51v-4.05c0-0.28,0.23-0.51,0.51-0.51
		c0.28,0,0.51,0.23,0.51,0.51v4.05C91.33,162.16,91.1,162.39,90.82,162.39z M119.23,156.95c-0.03,0-0.06,0-0.09-0.01
		c-0.27-0.05-0.46-0.32-0.4-0.59c0.28-1.48,1.19-2.78,2.49-3.56c0.24-0.14,0.55-0.06,0.69,0.18c0.14,0.24,0.06,0.55-0.18,0.69
		c-1.06,0.63-1.79,1.68-2.02,2.88C119.68,156.78,119.46,156.95,119.23,156.95z M79.4,156.72l-0.69-0.95
		c-0.16-0.23-0.11-0.54,0.11-0.71c0.23-0.16,0.54-0.12,0.71,0.11l0.11,0.16l2.37-1.62c0.23-0.16,0.55-0.1,0.7,0.13
		c0.16,0.23,0.1,0.55-0.13,0.7L79.4,156.72z M128.82,155.42c-0.1,0-0.2-0.03-0.29-0.09l-2.21-1.52c-0.34-0.23-0.71-0.41-1.09-0.54
		c-0.27-0.09-0.41-0.37-0.32-0.64c0.09-0.27,0.37-0.41,0.64-0.32c0.47,0.15,0.93,0.38,1.35,0.67l2.21,1.52
		c0.23,0.16,0.29,0.47,0.13,0.7C129.14,155.34,128.98,155.42,128.82,155.42z M131.67,154.85c-0.1,0-0.21-0.03-0.3-0.1
		c-0.23-0.16-0.28-0.48-0.11-0.71l2.38-3.28c0.16-0.23,0.48-0.27,0.71-0.11c0.23,0.16,0.28,0.48,0.11,0.71l-2.38,3.28
		C131.98,154.78,131.82,154.85,131.67,154.85z M89.56,154.61c-0.14,0-0.27-0.05-0.37-0.16c-0.81-0.88-1.95-1.38-3.13-1.38
		c0,0-0.01,0-0.01,0c-0.28,0-0.55-0.22-0.55-0.5c0-0.28,0.17-0.51,0.45-0.51l0.11,0h0c1.47,0,2.88,0.62,3.88,1.71
		c0.19,0.21,0.18,0.53-0.03,0.72C89.81,154.57,89.69,154.61,89.56,154.61z M76.74,152.7c-0.16,0-0.31-0.07-0.41-0.21l-2.38-3.27
		c-0.16-0.23-0.11-0.54,0.11-0.71c0.23-0.16,0.54-0.12,0.71,0.11l2.38,3.27c0.16,0.23,0.11,0.54-0.11,0.71
		C76.94,152.67,76.84,152.7,76.74,152.7z M135.09,148.48c-0.11,0-0.22-0.04-0.32-0.11l-3.16-2.53c-0.22-0.17-0.25-0.49-0.08-0.71
		c0.18-0.22,0.5-0.25,0.71-0.08l3.16,2.53c0.22,0.17,0.25,0.49,0.08,0.71C135.38,148.41,135.24,148.48,135.09,148.48z
		 M104.98,148.08c-0.24,0-0.48-0.01-0.72-0.02c-0.28-0.01-0.5-0.25-0.48-0.53c0.01-0.27,0.24-0.48,0.51-0.48c0.01,0,0.01,0,0.02,0
		c1.29,0.06,2.62-0.05,3.89-0.33c0.28-0.06,0.54,0.11,0.6,0.39c0.06,0.27-0.11,0.54-0.39,0.6
		C107.29,147.95,106.14,148.08,104.98,148.08z M100.31,147.35c-0.05,0-0.1-0.01-0.15-0.02c-1.33-0.42-2.6-1.02-3.77-1.78
		c-0.24-0.15-0.3-0.46-0.15-0.7c0.15-0.24,0.46-0.3,0.7-0.15c1.1,0.71,2.29,1.27,3.53,1.66c0.27,0.09,0.41,0.37,0.33,0.64
		C100.72,147.22,100.52,147.35,100.31,147.35z M76.94,146.82c-0.15,0-0.29-0.06-0.4-0.19c-0.17-0.22-0.14-0.54,0.08-0.71l3.16-2.53
		c0.22-0.17,0.53-0.14,0.71,0.08c0.17,0.22,0.14,0.54-0.08,0.71l-3.16,2.53C77.17,146.78,77.06,146.82,76.94,146.82z M112.1,146.33
		c-0.18,0-0.36-0.1-0.45-0.27c-0.13-0.25-0.03-0.55,0.21-0.68c1.16-0.6,2.23-1.36,3.2-2.25c0.21-0.19,0.53-0.17,0.72,0.03
		c0.19,0.21,0.18,0.53-0.03,0.72c-1.03,0.95-2.18,1.75-3.41,2.4C112.26,146.32,112.18,146.33,112.1,146.33z M128.77,143.42
		c-0.11,0-0.22-0.04-0.32-0.11l-3.16-2.53c-0.22-0.17-0.25-0.49-0.08-0.71c0.18-0.22,0.5-0.25,0.71-0.08l3.16,2.53
		c0.22,0.17,0.25,0.49,0.08,0.71C129.06,143.35,128.92,143.42,128.77,143.42z M93.58,143.02c-0.14,0-0.27-0.06-0.37-0.17
		c-0.69-0.76-1.31-1.6-1.84-2.48h-0.48c-0.28,0-0.51-0.23-0.51-0.51c0-0.28,0.23-0.51,0.51-0.51h1.06l0.15,0.25
		c0.53,0.92,1.15,1.78,1.86,2.56c0.19,0.21,0.17,0.53-0.03,0.72C93.82,142.98,93.7,143.02,93.58,143.02z M83.27,141.76
		c-0.15,0-0.29-0.06-0.4-0.19c-0.17-0.22-0.14-0.54,0.08-0.71l1.86-1.49h2.02c0.28,0,0.51,0.23,0.51,0.51
		c0,0.28-0.23,0.51-0.51,0.51h-1.66l-1.58,1.27C83.49,141.72,83.38,141.76,83.27,141.76z M117.99,140.91
		c-0.09,0-0.19-0.03-0.27-0.08c-0.24-0.15-0.31-0.46-0.16-0.7c0.11-0.17,0.21-0.34,0.31-0.52l0.15-0.25h3.72
		c0.28,0,0.51,0.23,0.51,0.51c0,0.28-0.23,0.51-0.51,0.51h-3.13c-0.06,0.1-0.12,0.2-0.18,0.3
		C118.32,140.83,118.16,140.91,117.99,140.91z"/>
	<polygon id="XMLID_00000159433565172225100860000011976170118890665133_" class="st0" points="102.19,162.85 96.13,162.85 
		103.01,174.75 109.87,162.85 107.4,162.85 103,170.56 99.79,164.98 101.05,164.98 	"/>
	<polygon id="XMLID_00000176736845442990380970000000937729238961674396_" class="st0" points="113.79,162.85 111.43,162.85 
		110.12,164.99 112.59,164.99 	"/>
	<polygon id="XMLID_00000013880884585726924720000013144961542347468695_" class="st0" points="111.88,166.19 109.46,166.19 
		103.73,176.07 104.94,178.19 	"/>
	<path id="XMLID_00000183934088982771481460000015858766426857823118_" class="st0" d="M104.98,158.85c-2.94,0-5.56,1.38-7.25,3.52
		h0.62c1.61-1.86,3.98-3.04,6.63-3.04c2.65,0,5.02,1.18,6.63,3.04h0.62C110.54,160.23,107.92,158.85,104.98,158.85z"/>
	<path id="XMLID_00000067936824272780463560000011329669958586975416_" class="st0" d="M113.46,164.42l-0.3,0.53
		c0.38,0.97,0.58,2.03,0.58,3.14c0,4.37-3.22,8.01-7.41,8.66l-0.3,0.52c4.6-0.52,8.19-4.44,8.19-9.18
		C114.22,166.79,113.95,165.55,113.46,164.42z"/>
	<path id="XMLID_00000170971234321762430830000003824911468264983735_" class="st0" d="M96.22,168.09c0-1.1,0.2-2.16,0.58-3.13
		l-0.3-0.52c-0.49,1.12-0.76,2.36-0.76,3.65c0,4.71,3.55,8.62,8.12,9.17l-0.3-0.53C99.4,176.06,96.22,172.44,96.22,168.09z"/>
</g>
</svg>
