<?xml version="1.0" encoding="utf-8"?>
<!-- Generator: Adobe Illustrator 25.4.1, SVG Export Plug-In . SVG Version: 6.00 Build 0)  -->
<svg version="1.1" id="Layer_1" xmlns="http://www.w3.org/2000/svg" xmlns:xlink="http://www.w3.org/1999/xlink" x="0px" y="0px"
	 viewBox="0 0 256 256" style="enable-background:new 0 0 256 256;" xml:space="preserve">
<style type="text/css">
	.st0{fill:#FFFFFF;}
</style>
<g>
	<path class="st0" d="M192.08,75.89H62.31c-1.86,0-3.37,1.51-3.37,3.37v81.7c0,1.86,1.51,3.37,3.37,3.37h129.77
		c1.86,0,3.37-1.51,3.37-3.37v-81.7C195.45,77.4,193.94,75.89,192.08,75.89z M185.97,156.47c0,1.6-1.29,2.89-2.89,2.89H71.3
		c-1.6,0-2.89-1.29-2.89-2.89V86.84c0-1.6,1.29-2.89,2.89-2.89h111.78c1.6,0,2.89,1.29,2.89,2.89V156.47z"/>
	<path class="st0" d="M189.49,162.27H64.6l-24.43,9.89v7.95h175.65v-7.95L189.49,162.27z M195.45,172.82H56.65
		c-0.26,0-0.47-0.21-0.47-0.47c0-0.26,0.21-0.47,0.47-0.47h138.8c0.26,0,0.47,0.21,0.47,0.47
		C195.92,172.61,195.71,172.82,195.45,172.82z"/>
	<polygon id="XMLID_00000170241261798591500930000000097382262774930064_" class="st0" points="120.34,107.74 105.48,107.74 
		122.36,136.93 139.19,107.74 133.12,107.74 122.33,126.64 114.46,112.97 117.55,112.97 	"/>
	<polygon id="XMLID_00000140693150855800720200000004191377400585276856_" class="st0" points="148.79,107.74 143.02,107.74 
		139.79,113 145.86,113 	"/>
	<polygon id="XMLID_00000160155765454385607950000001117316408157424042_" class="st0" points="144.11,115.95 138.18,115.95 
		124.13,140.18 127.1,145.37 	"/>
	<g id="XMLID_00000085215721365709430210000015100904810338854054_">
		<path id="XMLID_00000163060456133395162080000006395121184519312540_" class="st0" d="M127.19,97.94c-7.2,0-13.63,3.38-17.78,8.63
			h1.52c3.94-4.56,9.77-7.46,16.26-7.46c6.49,0,12.32,2.89,16.26,7.46h1.52C140.82,101.31,134.39,97.94,127.19,97.94z"/>
		<path id="XMLID_00000057849390793929581190000010668000585794146728_" class="st0" d="M147.99,111.6l-0.73,1.31
			c0.92,2.39,1.43,4.99,1.43,7.7c0,10.72-7.9,19.64-18.18,21.23l-0.74,1.28c11.29-1.27,20.1-10.88,20.1-22.51
			C149.86,117.4,149.19,114.36,147.99,111.6z"/>
		<path id="XMLID_00000023981271514852867350000014676700856371887542_" class="st0" d="M105.7,120.6c0-2.71,0.5-5.29,1.42-7.68
			l-0.74-1.28c-1.19,2.75-1.85,5.78-1.85,8.96c0,11.56,8.71,21.14,19.91,22.5l-0.74-1.29C113.51,140.14,105.7,131.26,105.7,120.6z"
			/>
	</g>
</g>
</svg>
