<?xml version="1.0" encoding="utf-8"?>
<!-- Generator: Adobe Illustrator 25.4.1, SVG Export Plug-In . SVG Version: 6.00 Build 0)  -->
<svg version="1.1" id="Layer_1" xmlns="http://www.w3.org/2000/svg" xmlns:xlink="http://www.w3.org/1999/xlink" x="0px" y="0px"
	 viewBox="0 0 256 256" style="enable-background:new 0 0 256 256;" xml:space="preserve">
<style type="text/css">
	.st0{fill:#FFFFFF;}
</style>
<g>
	<path class="st0" d="M171.13,76.91l-77.39-7.43l-2.16,3.59l28.99,35.22l-61.82,11.02v7.43l5.67,1.87v38.06h6.24v-13.44l67.97,24.01
		v9.28h5.3v-10.29l34.73-25.51v15.96h5.3v-27.86l10.65-2.49v-7.13l2.64-2.7L171.13,76.91z M70.66,130.67L89.83,137l-19.17,7.3
		V130.67z M138.63,171.86l-67.97-22.88l26.6-9.53l15.33,5.06v5.03h5.3v-3.28l14.18,4.68l6.56-1.53V171.86z M143.93,170.89v-22.73
		l17.8-4.16l13.63,4.8L143.93,170.89z M178.66,145.1l-9.05-2.93l9.05-2.12V145.1z M133.16,138.41l-59.17-17.26l47.18-9.98
		l58.41,17.53L133.16,138.41z M122.97,105.9l-20.13-27.31l62.53,6.47l19.65,37.38L122.97,105.9z"/>
	<polygon id="XMLID_00000181807104807581489950000003798712840579365280_" class="st0" points="127.46,119.45 119.82,117.04 
		118.85,126.42 137.16,122.51 134.04,121.53 122.24,124.08 122.71,119.69 124.3,120.19 	"/>
	<polygon id="XMLID_00000072260954358367595090000013035366754317918376_" class="st0" points="142.1,124.07 139.13,123.13 
		135.73,123.8 138.85,124.79 	"/>
	<polygon id="XMLID_00000020389188648496182380000015247406149296189332_" class="st0" points="136.98,125.18 133.93,124.21 
		118.69,127.45 118.49,129.11 	"/>
	<path id="XMLID_00000031178927833052657150000013131546833715203460_" class="st0" d="M134.23,118.33
		c-3.71-1.17-8.13-1.44-12.01-0.92l0.78,0.25c3.54-0.4,7.49-0.11,10.83,0.94c3.34,1.05,5.38,2.66,5.9,4.33l0.78,0.25
		C140.13,121.31,137.94,119.5,134.23,118.33z"/>
	<path id="XMLID_00000079444019537020295700000000647050298760246428_" class="st0" d="M140.41,124.81l-0.81,0.18
		c-0.32,0.69-0.92,1.37-1.81,1.98c-3.55,2.44-10.56,3.19-16.38,1.88l-0.8,0.17c6.23,1.54,13.94,0.78,17.79-1.86
		C139.46,126.44,140.12,125.64,140.41,124.81z"/>
	<path id="XMLID_00000049923036293401728760000012984129452041693102_" class="st0" d="M115.68,120c0.9-0.62,2.01-1.12,3.27-1.52
		l0.04-0.41c-1.52,0.43-2.86,1.01-3.92,1.74c-3.82,2.63-2.51,6.22,2.81,8.35l0.05-0.41C113.24,125.72,112.15,122.43,115.68,120z"/>
</g>
</svg>
