<?xml version="1.0" encoding="utf-8"?>
<!-- Generator: Adobe Illustrator 25.4.1, SVG Export Plug-In . SVG Version: 6.00 Build 0)  -->
<svg version="1.1" id="Layer_1" xmlns="http://www.w3.org/2000/svg" xmlns:xlink="http://www.w3.org/1999/xlink" x="0px" y="0px"
	 viewBox="0 0 682 459" style="enable-background:new 0 0 682 459;" xml:space="preserve">
<style type="text/css">
	.st0{fill:url(#SVGID_1_);}
	.st1{fill:url(#SVGID_00000047018491875222941250000018243747325555706009_);}
	.st2{fill:url(#SVGID_00000019664450945782130660000003833576138439387566_);}
	.st3{fill:url(#SVGID_00000121996660430338225080000011277584521134605232_);}
	.st4{fill:url(#SVGID_00000018920073609493129040000007963891592418290856_);}
	.st5{fill:url(#SVGID_00000071537546858906954400000009216433432402506138_);}
	.st6{fill:url(#SVGID_00000011026564025357127530000007211593320121071255_);}
	.st7{fill:url(#SVGID_00000102539097020698072510000018427930207093725576_);}
	.st8{fill:url(#SVGID_00000164484716030643846120000000050432619494338195_);}
	.st9{fill:url(#SVGID_00000013192570128223064330000014927470841105745037_);}
	.st10{fill:url(#SVGID_00000116235981870849940270000014650278024122643627_);}
	.st11{fill:url(#SVGID_00000112605150567641789800000013428763328417698726_);}
	.st12{fill:url(#SVGID_00000181081063967184701960000003127414975918128535_);}
	.st13{fill:url(#SVGID_00000081645697925032880850000003418211700103688374_);}
	.st14{fill:url(#SVGID_00000124870612944600862390000010110926966899685789_);}
	.st15{fill:url(#SVGID_00000047031465256315903190000004170361856276175792_);}
	.st16{fill:#F58220;}
	.st17{fill:url(#SVGID_00000183932698193320016610000001964695484099901067_);}
	.st18{fill:url(#SVGID_00000086668343166939026570000017287405239886653853_);}
	.st19{fill:url(#SVGID_00000001621945407788698440000011080284881682961571_);}
	.st20{fill:url(#SVGID_00000028285077828319611350000003899276345524854966_);}
	.st21{fill:url(#SVGID_00000047765899364882907440000007949955051414233783_);}
	.st22{fill:url(#SVGID_00000125588374658332424130000013300873028402019238_);}
	.st23{fill:url(#SVGID_00000024720886426929612090000002292799225585198466_);}
	.st24{fill:url(#SVGID_00000152246234125980361390000006699280093102180267_);}
	.st25{fill:url(#SVGID_00000134948810335537275570000001095800152628422277_);}
	.st26{fill:url(#SVGID_00000141437660308670503150000001752617925021468559_);}
	.st27{fill:url(#SVGID_00000085932346368228135290000003410757833524902808_);}
	.st28{fill:url(#SVGID_00000105396007517400510080000013165330462851750303_);}
	.st29{fill:url(#SVGID_00000057116686615387640980000010454427777499410061_);}
	.st30{fill:url(#SVGID_00000057866698884137565260000014836679955609570710_);}
	.st31{fill:url(#SVGID_00000104665145507634420780000011862730473053158309_);}
	.st32{fill:url(#SVGID_00000174599046886244969160000017753270953112711814_);}
	.st33{fill:url(#SVGID_00000093164151968537195590000010726786238138680990_);}
	.st34{fill:url(#SVGID_00000158749423397960860740000004735405575170857098_);}
	.st35{fill:url(#SVGID_00000072243136362608626620000018284248024502273194_);}
	.st36{fill:url(#SVGID_00000108987525858001203470000003627168638693745312_);}
	.st37{fill:url(#SVGID_00000173147055315230743450000015058956667158032807_);}
	.st38{fill:url(#SVGID_00000000915697784339084920000015532814223773900163_);}
	.st39{fill:url(#SVGID_00000139285708630540887210000008471820493767247012_);}
	.st40{fill:url(#SVGID_00000147930239066626177510000004678475191659356803_);}
</style>
<linearGradient id="SVGID_1_" gradientUnits="userSpaceOnUse" x1="139.7103" y1="275.1807" x2="139.7103" y2="185.5422">
	<stop  offset="0" style="stop-color:#F47221"/>
	<stop  offset="0.4892" style="stop-color:#F89A1D"/>
	<stop  offset="1" style="stop-color:#F47221"/>
</linearGradient>
<polygon class="st0" points="135.78,202.05 106.46,202.05 139.77,259.64 172.96,202.05 161,202.05 139.71,239.35 124.17,212.37 
	130.27,212.37 "/>
<linearGradient id="SVGID_00000142878981906119556570000011669022743428862871_" gradientUnits="userSpaceOnUse" x1="144.6913" y1="276.5386" x2="187.6918" y2="198.822">
	<stop  offset="0" style="stop-color:#6F7073"/>
	<stop  offset="0.4892" style="stop-color:#84868A"/>
	<stop  offset="1" style="stop-color:#6F7073"/>
</linearGradient>
<polygon style="fill:url(#SVGID_00000142878981906119556570000011669022743428862871_);" points="191.93,202.05 180.53,202.05 
	174.15,212.42 186.13,212.42 "/>
<linearGradient id="SVGID_00000056405475432979663780000005431325012038985875_" gradientUnits="userSpaceOnUse" x1="144.1175" y1="276.2211" x2="187.118" y2="198.5045">
	<stop  offset="0" style="stop-color:#6F7073"/>
	<stop  offset="0.4892" style="stop-color:#84868A"/>
	<stop  offset="1" style="stop-color:#6F7073"/>
</linearGradient>
<polygon style="fill:url(#SVGID_00000056405475432979663780000005431325012038985875_);" points="182.69,218.24 170.97,218.24 
	143.25,266.05 149.11,276.3 "/>
<g>
	
		<linearGradient id="SVGID_00000179606909870937442690000008902768563237689751_" gradientUnits="userSpaceOnUse" x1="149.2964" y1="276.2749" x2="149.2964" y2="173.8202">
		<stop  offset="0" style="stop-color:#6F7073"/>
		<stop  offset="0.4892" style="stop-color:#84868A"/>
		<stop  offset="1" style="stop-color:#6F7073"/>
	</linearGradient>
	<path style="fill:url(#SVGID_00000179606909870937442690000008902768563237689751_);" d="M149.3,182.7
		c-14.21,0-26.9,6.66-35.09,17.03h3.01c7.78-9,19.28-14.71,32.09-14.71c12.81,0,24.31,5.71,32.09,14.71h3.01
		C176.2,189.36,163.51,182.7,149.3,182.7z"/>
	
		<linearGradient id="SVGID_00000127749849386030997420000005612192383831230390_" gradientUnits="userSpaceOnUse" x1="174.1891" y1="276.2749" x2="174.1891" y2="173.8202">
		<stop  offset="0" style="stop-color:#F47221"/>
		<stop  offset="0.4892" style="stop-color:#F89A1D"/>
		<stop  offset="1" style="stop-color:#F47221"/>
	</linearGradient>
	<path style="fill:url(#SVGID_00000127749849386030997420000005612192383831230390_);" d="M190.33,209.65l-1.45,2.58
		c1.82,4.71,2.81,9.84,2.81,15.19c0,21.16-15.59,38.76-35.88,41.9l-1.46,2.53c22.29-2.51,39.66-21.48,39.66-44.43
		C194.02,221.11,192.71,215.1,190.33,209.65z"/>
	
		<linearGradient id="SVGID_00000002373021072860461920000002515877124289871515_" gradientUnits="userSpaceOnUse" x1="124.222" y1="276.2749" x2="124.222" y2="173.8202">
		<stop  offset="0" style="stop-color:#6F7073"/>
		<stop  offset="0.4892" style="stop-color:#84868A"/>
		<stop  offset="1" style="stop-color:#6F7073"/>
	</linearGradient>
	<path style="fill:url(#SVGID_00000002373021072860461920000002515877124289871515_);" d="M106.89,227.42
		c0-5.34,0.99-10.45,2.8-15.16l-1.46-2.53c-2.36,5.43-3.66,11.41-3.66,17.69c0,22.82,17.19,41.71,39.3,44.39l-1.45-2.54
		C122.3,265.97,106.89,248.46,106.89,227.42z"/>
</g>
<g>
	
		<linearGradient id="SVGID_00000023268839076531682380000014304988645828092565_" gradientUnits="userSpaceOnUse" x1="225.5061" y1="239.116" x2="225.5061" y2="205.2954">
		<stop  offset="0" style="stop-color:#F47221"/>
		<stop  offset="0.4892" style="stop-color:#F89A1D"/>
		<stop  offset="1" style="stop-color:#F47221"/>
	</linearGradient>
	<path style="fill:url(#SVGID_00000023268839076531682380000014304988645828092565_);" d="M213.03,208.79l12.42,18.32l12.95-18.32
		h10.07l-17.66,24.96c-0.61,0.8-1.35,1.51-2.23,2.14c-0.88,0.63-1.98,0.95-3.3,0.95c-1.29,0-2.37-0.3-3.24-0.89
		c-0.87-0.59-1.6-1.33-2.21-2.21l-17.28-24.96H213.03z"/>
	
		<linearGradient id="SVGID_00000172422188999553731740000008841685305749517720_" gradientUnits="userSpaceOnUse" x1="255.9069" y1="239.116" x2="255.9069" y2="205.2954">
		<stop  offset="0" style="stop-color:#F47221"/>
		<stop  offset="0.4892" style="stop-color:#F89A1D"/>
		<stop  offset="1" style="stop-color:#F47221"/>
	</linearGradient>
	<path style="fill:url(#SVGID_00000172422188999553731740000008841685305749517720_);" d="M260.18,236.39h-8.54v-27.6h8.54V236.39z"
		/>
	
		<linearGradient id="SVGID_00000134958035999160472700000012158306226217193385_" gradientUnits="userSpaceOnUse" x1="280.7292" y1="239.116" x2="280.7292" y2="205.2954">
		<stop  offset="0" style="stop-color:#F47221"/>
		<stop  offset="0.4892" style="stop-color:#F89A1D"/>
		<stop  offset="1" style="stop-color:#F47221"/>
	</linearGradient>
	<path style="fill:url(#SVGID_00000134958035999160472700000012158306226217193385_);" d="M293.72,236.39h-26.15
		c-1.07,0-2-0.3-2.78-0.89c-0.78-0.59-1.18-1.45-1.18-2.58c0-0.63,0.17-1.24,0.5-1.84c0.33-0.59,0.78-1.12,1.36-1.59l10.07-7.92
		c1.15-0.91,2.14-1.68,2.97-2.33c0.82-0.65,1.54-1.2,2.14-1.65c0.6-0.45,1.11-0.82,1.51-1.09c0.4-0.27,0.72-0.51,0.97-0.7
		c-0.39,0.03-0.83,0.06-1.34,0.08c-0.51,0.03-1.14,0.05-1.9,0.06c-0.76,0.01-1.64,0.02-2.66,0.02s-2.21,0-3.59,0h-11.06l5.45-7.18
		h25.45c1.07,0,2,0.3,2.78,0.89c0.78,0.59,1.18,1.45,1.18,2.58c0,0.63-0.17,1.24-0.5,1.84c-0.33,0.59-0.78,1.11-1.36,1.55
		l-10.19,8.08c-1.13,0.91-2.1,1.68-2.93,2.31c-0.82,0.63-1.53,1.18-2.12,1.63c-0.59,0.45-1.08,0.82-1.46,1.09
		c-0.39,0.28-0.72,0.51-0.99,0.7c0.33-0.03,0.89-0.05,1.67-0.06c0.78-0.01,1.68-0.03,2.7-0.04c1.02-0.01,2.1-0.03,3.26-0.04
		c1.16-0.01,2.27-0.02,3.34-0.02h10.02L293.72,236.39z"/>
	
		<linearGradient id="SVGID_00000123405892956069065670000002185016760267807392_" gradientUnits="userSpaceOnUse" x1="317.8332" y1="239.116" x2="317.8332" y2="205.2954">
		<stop  offset="0" style="stop-color:#F47221"/>
		<stop  offset="0.4892" style="stop-color:#F89A1D"/>
		<stop  offset="1" style="stop-color:#F47221"/>
	</linearGradient>
	<path style="fill:url(#SVGID_00000123405892956069065670000002185016760267807392_);" d="M333.86,229.29l-5.49,7.1h-26.56v-27.6
		h31.97l-5.53,7.18h-17.86v3.3h21.86l-4.91,6.27h-16.95v3.75H333.86z"/>
	
		<linearGradient id="SVGID_00000144337053235822282170000005726000970096026766_" gradientUnits="userSpaceOnUse" x1="355.5459" y1="239.116" x2="355.5459" y2="205.2954">
		<stop  offset="0" style="stop-color:#F47221"/>
		<stop  offset="0.4892" style="stop-color:#F89A1D"/>
		<stop  offset="1" style="stop-color:#F47221"/>
	</linearGradient>
	<path style="fill:url(#SVGID_00000144337053235822282170000005726000970096026766_);" d="M375.16,236.39h-11.43l-6.15-7.3h-13.12
		v7.3h-8.54v-14.11h24.01c1.32,0,2.43-0.27,3.34-0.82c0.91-0.55,1.36-1.31,1.36-2.27c0-1.07-0.41-1.88-1.24-2.41
		c-0.82-0.54-1.98-0.8-3.46-0.8h-24.01l5.57-7.18h17.74c1.57,0,3.19,0.14,4.87,0.43c1.68,0.29,3.2,0.8,4.58,1.55
		c1.38,0.74,2.51,1.75,3.4,3.01c0.89,1.26,1.34,2.89,1.34,4.87c0,1.07-0.17,2.09-0.5,3.05c-0.33,0.96-0.8,1.83-1.42,2.6
		c-0.62,0.77-1.38,1.42-2.27,1.96s-1.9,0.91-3.03,1.13c0.47,0.36,0.99,0.81,1.57,1.36c0.58,0.55,1.35,1.31,2.31,2.27L375.16,236.39z
		"/>
</g>
<g>
	
		<linearGradient id="SVGID_00000179647531032254186290000013142298067280910754_" gradientUnits="userSpaceOnUse" x1="389.1306" y1="235.6295" x2="389.1306" y2="205.8528">
		<stop  offset="0" style="stop-color:#6F7073"/>
		<stop  offset="0.4892" style="stop-color:#84868A"/>
		<stop  offset="1" style="stop-color:#6F7073"/>
	</linearGradient>
	<path style="fill:url(#SVGID_00000179647531032254186290000013142298067280910754_);" d="M393.4,236.39h-8.54v-27.6h8.54V236.39z"
		/>
	
		<linearGradient id="SVGID_00000047771872114932452550000006353113806126803357_" gradientUnits="userSpaceOnUse" x1="421.3569" y1="235.6295" x2="421.3569" y2="205.8528">
		<stop  offset="0" style="stop-color:#6F7073"/>
		<stop  offset="0.4892" style="stop-color:#84868A"/>
		<stop  offset="1" style="stop-color:#6F7073"/>
	</linearGradient>
	<path style="fill:url(#SVGID_00000047771872114932452550000006353113806126803357_);" d="M417.01,219.06
		c0.6,1.07,1.13,2.01,1.59,2.83c0.45,0.81,0.85,1.53,1.2,2.17c0.34,0.63,0.65,1.21,0.91,1.73c0.26,0.52,0.52,1.03,0.76,1.53
		c0.22-0.5,0.46-1,0.72-1.51c0.26-0.51,0.56-1.09,0.91-1.73c0.34-0.65,0.74-1.37,1.2-2.17c0.45-0.8,0.98-1.73,1.59-2.8l4.41-7.84
		c0.5-0.88,1.12-1.59,1.88-2.12c0.76-0.54,1.7-0.8,2.83-0.8c1.07,0,2.04,0.31,2.91,0.93c0.87,0.62,1.49,1.57,1.88,2.87l6.97,24.25
		h-8.5l-2.6-9.61c-0.44-1.57-0.81-2.94-1.11-4.12c-0.3-1.18-0.56-2.34-0.78-3.46c-0.47,0.96-0.99,2.03-1.57,3.2
		c-0.58,1.17-1.33,2.65-2.27,4.43l-3.71,6.93c-0.36,0.69-0.72,1.23-1.09,1.63c-0.37,0.4-0.75,0.71-1.13,0.93
		c-0.39,0.22-0.8,0.36-1.24,0.43c-0.44,0.07-0.92,0.1-1.44,0.1c-0.52,0-1-0.03-1.44-0.1c-0.44-0.07-0.85-0.21-1.24-0.43
		c-0.38-0.22-0.76-0.53-1.13-0.93c-0.37-0.4-0.74-0.94-1.09-1.63l-3.71-6.97c-0.5-0.93-0.94-1.77-1.32-2.52
		c-0.39-0.74-0.74-1.41-1.05-2c-0.32-0.59-0.59-1.13-0.82-1.63c-0.23-0.5-0.46-0.98-0.68-1.44c-0.22,1.1-0.48,2.25-0.78,3.44
		c-0.3,1.2-0.66,2.58-1.07,4.15l-2.6,9.61h-8.37l7.14-24.25c0.38-1.29,1.02-2.25,1.9-2.87c0.88-0.62,1.86-0.93,2.93-0.93
		c1.1,0,2.03,0.26,2.78,0.78c0.76,0.52,1.38,1.24,1.88,2.15L417.01,219.06z"/>
	
		<linearGradient id="SVGID_00000096051988482692657000000016673893616059400877_" gradientUnits="userSpaceOnUse" x1="467.2786" y1="235.6295" x2="467.2786" y2="205.8528">
		<stop  offset="0" style="stop-color:#6F7073"/>
		<stop  offset="0.4892" style="stop-color:#84868A"/>
		<stop  offset="1" style="stop-color:#6F7073"/>
	</linearGradient>
	<path style="fill:url(#SVGID_00000096051988482692657000000016673893616059400877_);" d="M485.53,219.14c0,1.54-0.3,2.94-0.91,4.19
		c-0.61,1.25-1.49,2.32-2.66,3.2c-1.17,0.88-2.59,1.57-4.27,2.06c-1.68,0.5-3.59,0.74-5.73,0.74h-14.44v7.05h-8.5v-14.11h23.76
		c1.32,0,2.34-0.29,3.07-0.87c0.73-0.58,1.09-1.35,1.09-2.31c0-0.96-0.36-1.73-1.09-2.29c-0.73-0.56-1.75-0.85-3.07-0.85h-23.76
		l5.65-7.18H472c2.14,0,4.06,0.25,5.73,0.76c1.68,0.51,3.09,1.22,4.25,2.12c1.16,0.91,2.04,1.99,2.64,3.26
		C485.23,216.2,485.53,217.6,485.53,219.14z"/>
	
		<linearGradient id="SVGID_00000143618264952032251420000016840745771320754317_" gradientUnits="userSpaceOnUse" x1="505.8878" y1="235.6295" x2="505.8878" y2="205.8528">
		<stop  offset="0" style="stop-color:#6F7073"/>
		<stop  offset="0.4892" style="stop-color:#84868A"/>
		<stop  offset="1" style="stop-color:#6F7073"/>
	</linearGradient>
	<path style="fill:url(#SVGID_00000143618264952032251420000016840745771320754317_);" d="M521.91,229.29l-5.49,7.1h-26.57v-27.6
		h31.97l-5.53,7.18h-17.86v3.3h21.86l-4.91,6.27h-16.95v3.75H521.91z"/>
	
		<linearGradient id="SVGID_00000119835747248522545760000015008161837913877429_" gradientUnits="userSpaceOnUse" x1="543.8167" y1="235.6295" x2="543.8167" y2="205.8528">
		<stop  offset="0" style="stop-color:#6F7073"/>
		<stop  offset="0.4892" style="stop-color:#84868A"/>
		<stop  offset="1" style="stop-color:#6F7073"/>
	</linearGradient>
	<path style="fill:url(#SVGID_00000119835747248522545760000015008161837913877429_);" d="M564.03,208.79l-8.7,7.96
		c-0.96,0.88-1.77,1.62-2.43,2.21c-0.66,0.59-1.22,1.09-1.69,1.49c-0.47,0.4-0.86,0.73-1.18,0.99c-0.32,0.26-0.6,0.49-0.85,0.68
		c0.25,0.16,0.52,0.37,0.82,0.62c0.3,0.25,0.7,0.6,1.2,1.05c0.5,0.45,1.11,1.02,1.86,1.71c0.74,0.69,1.68,1.55,2.81,2.6l8.83,8.29
		h-12.04l-9.41-9.12l-9.69,9.12h-10.6l8.99-8.29c1.05-0.96,1.92-1.77,2.64-2.41c0.71-0.65,1.31-1.18,1.77-1.59
		c0.47-0.41,0.86-0.74,1.18-0.99c0.32-0.25,0.6-0.47,0.85-0.66c-0.25-0.19-0.52-0.41-0.82-0.64c-0.3-0.23-0.69-0.56-1.16-0.99
		c-0.47-0.43-1.06-0.96-1.77-1.61c-0.72-0.65-1.61-1.48-2.68-2.5l-8.46-7.92h11.84l8.79,8.58l8.87-8.58H564.03z"/>
</g>
<g>
	<g>
		<g>
			<path class="st16" d="M570.11,203c0.39-0.07,0.97-0.12,1.57-0.12c0.82,0,1.38,0.14,1.76,0.46c0.31,0.26,0.49,0.66,0.49,1.14
				c0,0.74-0.5,1.24-1.03,1.43v0.03c0.41,0.15,0.65,0.55,0.8,1.1c0.18,0.71,0.33,1.37,0.45,1.59h-1.08
				c-0.08-0.17-0.22-0.64-0.38-1.35c-0.16-0.74-0.43-0.98-1.02-1h-0.53v2.35h-1.03V203z M571.14,205.52h0.62
				c0.7,0,1.14-0.37,1.14-0.94c0-0.63-0.44-0.91-1.12-0.91c-0.33,0-0.54,0.03-0.64,0.05V205.52z"/>
		</g>
	</g>
	<g>
		<path class="st16" d="M572.02,211.11c-2.98,0-5.4-2.42-5.4-5.4s2.42-5.4,5.4-5.4c2.98,0,5.4,2.42,5.4,5.4
			S575,211.11,572.02,211.11z M572.02,201.08c-2.55,0-4.63,2.08-4.63,4.63c0,2.55,2.08,4.63,4.63,4.63c2.55,0,4.63-2.08,4.63-4.63
			C576.65,203.15,574.58,201.08,572.02,201.08z"/>
	</g>
</g>
<g>
	
		<linearGradient id="SVGID_00000048494013690215558750000011086021552977328304_" gradientUnits="userSpaceOnUse" x1="238.6241" y1="255.911" x2="238.6241" y2="246.118">
		<stop  offset="0" style="stop-color:#F47221"/>
		<stop  offset="0.4892" style="stop-color:#F89A1D"/>
		<stop  offset="1" style="stop-color:#F47221"/>
	</linearGradient>
	<path style="fill:url(#SVGID_00000048494013690215558750000011086021552977328304_);" d="M243.18,246.93
		c0.14,0,0.22,0.08,0.22,0.22v8.06c0,0.14-0.08,0.22-0.22,0.22h-1.37c-0.14,0-0.22-0.08-0.22-0.22v-3.09l0.08-2.32l-0.09-0.02
		l-1.25,3.21l-0.97,2.28c-0.05,0.11-0.14,0.16-0.25,0.16h-1.06c-0.11,0-0.2-0.05-0.25-0.16l-0.92-2.28l-1.28-3.23l-0.09,0.02
		l0.08,2.34v3.09c0,0.14-0.08,0.22-0.22,0.22h-1.31c-0.14,0-0.22-0.08-0.22-0.22v-8.06c0-0.14,0.08-0.22,0.22-0.22h1.82
		c0.11,0,0.2,0.06,0.25,0.17l1.25,2.85l1.25,3.15h0.06l1.23-3.15l1.18-2.85c0.05-0.11,0.14-0.17,0.28-0.17H243.18z"/>
	
		<linearGradient id="SVGID_00000047039015366361329400000003454622160843348916_" gradientUnits="userSpaceOnUse" x1="252.5622" y1="255.911" x2="252.5622" y2="246.118">
		<stop  offset="0" style="stop-color:#F47221"/>
		<stop  offset="0.4892" style="stop-color:#F89A1D"/>
		<stop  offset="1" style="stop-color:#F47221"/>
	</linearGradient>
	<path style="fill:url(#SVGID_00000047039015366361329400000003454622160843348916_);" d="M254.68,253.74h-4.24l-0.59,1.5
		c-0.05,0.12-0.14,0.19-0.26,0.19h-1.54c-0.16,0-0.2-0.08-0.16-0.22l3.68-8.15c0.03-0.08,0.09-0.13,0.2-0.13h1.78
		c0.11,0,0.17,0.05,0.2,0.13l3.51,8.12c0.05,0.13-0.03,0.25-0.17,0.25h-1.48c-0.16,0-0.26-0.08-0.33-0.22L254.68,253.74z
		 M251.09,252.1h2.96l-1.37-3.49h-0.17L251.09,252.1z"/>
	
		<linearGradient id="SVGID_00000063595152152726709730000007757320180582632331_" gradientUnits="userSpaceOnUse" x1="265.5844" y1="255.911" x2="265.5844" y2="246.118">
		<stop  offset="0" style="stop-color:#F47221"/>
		<stop  offset="0.4892" style="stop-color:#F89A1D"/>
		<stop  offset="1" style="stop-color:#F47221"/>
	</linearGradient>
	<path style="fill:url(#SVGID_00000063595152152726709730000007757320180582632331_);" d="M267.96,255.42
		c-0.11,0-0.19-0.03-0.23-0.11l-2.14-2.7l-2.15-3.04l-0.08,0.02l0.11,2.62v2.99c0,0.14-0.08,0.22-0.22,0.22h-1.33
		c-0.14,0-0.22-0.08-0.22-0.22v-8.06c0-0.14,0.08-0.22,0.22-0.22h1.2c0.12,0,0.22,0.03,0.3,0.11l2.34,2.96l1.96,2.77l0.08-0.02
		l-0.11-2.63v-2.98c0-0.14,0.08-0.22,0.22-0.22h1.33c0.14,0,0.22,0.08,0.22,0.22v8.06c0,0.14-0.08,0.22-0.22,0.22H267.96z"/>
	
		<linearGradient id="SVGID_00000052080010263798820300000013164467493310442397_" gradientUnits="userSpaceOnUse" x1="278.1055" y1="255.911" x2="278.1055" y2="246.118">
		<stop  offset="0" style="stop-color:#F47221"/>
		<stop  offset="0.4892" style="stop-color:#F89A1D"/>
		<stop  offset="1" style="stop-color:#F47221"/>
	</linearGradient>
	<path style="fill:url(#SVGID_00000052080010263798820300000013164467493310442397_);" d="M274.29,247.15
		c0-0.14,0.08-0.22,0.22-0.22h1.37c0.14,0,0.22,0.08,0.22,0.22v4.52c0,1.26,0.7,2.17,2,2.17c1.26,0,2.01-0.86,2.01-2.17v-4.52
		c0-0.14,0.08-0.22,0.22-0.22h1.37c0.14,0,0.22,0.08,0.22,0.22v4.54c0,2.2-1.47,3.87-3.82,3.87c-2.34,0-3.8-1.67-3.8-3.87V247.15z"
		/>
	
		<linearGradient id="SVGID_00000017493415402754301690000015451078113310865568_" gradientUnits="userSpaceOnUse" x1="290.0728" y1="255.911" x2="290.0728" y2="246.118">
		<stop  offset="0" style="stop-color:#F47221"/>
		<stop  offset="0.4892" style="stop-color:#F89A1D"/>
		<stop  offset="1" style="stop-color:#F47221"/>
	</linearGradient>
	<path style="fill:url(#SVGID_00000017493415402754301690000015451078113310865568_);" d="M293.18,246.93
		c0.14,0,0.22,0.08,0.22,0.22v1.28c0,0.14-0.08,0.22-0.22,0.22h-4.61v1.62h4.18c0.14,0,0.22,0.08,0.22,0.22v1.28
		c0,0.14-0.08,0.22-0.22,0.22h-4.18v3.23c0,0.14-0.08,0.22-0.22,0.22h-1.37c-0.14,0-0.22-0.08-0.22-0.22v-8.06
		c0-0.14,0.08-0.22,0.22-0.22H293.18z"/>
	
		<linearGradient id="SVGID_00000054225817360658796400000003896406737143497123_" gradientUnits="userSpaceOnUse" x1="301.3831" y1="255.911" x2="301.3831" y2="246.118">
		<stop  offset="0" style="stop-color:#F47221"/>
		<stop  offset="0.4892" style="stop-color:#F89A1D"/>
		<stop  offset="1" style="stop-color:#F47221"/>
	</linearGradient>
	<path style="fill:url(#SVGID_00000054225817360658796400000003896406737143497123_);" d="M303.5,253.74h-4.24l-0.59,1.5
		c-0.05,0.12-0.14,0.19-0.26,0.19h-1.54c-0.16,0-0.2-0.08-0.16-0.22l3.68-8.15c0.03-0.08,0.09-0.13,0.2-0.13h1.78
		c0.11,0,0.17,0.05,0.2,0.13l3.51,8.12c0.05,0.13-0.03,0.25-0.17,0.25h-1.48c-0.16,0-0.26-0.08-0.33-0.22L303.5,253.74z
		 M299.91,252.1h2.96l-1.37-3.49h-0.17L299.91,252.1z"/>
	
		<linearGradient id="SVGID_00000088098533215007393270000002600731110268193471_" gradientUnits="userSpaceOnUse" x1="313.8242" y1="255.911" x2="313.8242" y2="246.118">
		<stop  offset="0" style="stop-color:#F47221"/>
		<stop  offset="0.4892" style="stop-color:#F89A1D"/>
		<stop  offset="1" style="stop-color:#F47221"/>
	</linearGradient>
	<path style="fill:url(#SVGID_00000088098533215007393270000002600731110268193471_);" d="M317.86,248.81
		c0.06,0.11,0.05,0.19-0.03,0.25l-0.98,0.75c-0.11,0.11-0.23,0.05-0.3-0.03c-0.64-0.87-1.34-1.26-2.4-1.26
		c-1.56,0-2.59,1.09-2.59,2.63c0,1.54,1.04,2.68,2.59,2.68c1.06,0,1.81-0.37,2.45-1.31c0.08-0.08,0.16-0.08,0.25,0l0.98,0.78
		c0.08,0.08,0.09,0.17,0.03,0.25c-0.8,1.31-2.15,2-3.71,2c-2.49,0-4.4-1.89-4.4-4.4c0-2.51,1.9-4.35,4.4-4.35
		C315.61,246.8,317.11,247.53,317.86,248.81z"/>
	
		<linearGradient id="SVGID_00000082367251608223167800000013656438275465010313_" gradientUnits="userSpaceOnUse" x1="325.5619" y1="255.911" x2="325.5619" y2="246.118">
		<stop  offset="0" style="stop-color:#F47221"/>
		<stop  offset="0.4892" style="stop-color:#F89A1D"/>
		<stop  offset="1" style="stop-color:#F47221"/>
	</linearGradient>
	<path style="fill:url(#SVGID_00000082367251608223167800000013656438275465010313_);" d="M329.18,246.93
		c0.14,0,0.22,0.08,0.22,0.22v1.28c0,0.14-0.08,0.22-0.22,0.22h-2.71v6.56c0,0.14-0.08,0.22-0.22,0.22h-1.37
		c-0.14,0-0.22-0.08-0.22-0.22v-6.56h-2.71c-0.14,0-0.22-0.08-0.22-0.22v-1.28c0-0.14,0.08-0.22,0.22-0.22H329.18z"/>
	
		<linearGradient id="SVGID_00000134949218742197490120000000594031207316934820_" gradientUnits="userSpaceOnUse" x1="337.4199" y1="255.911" x2="337.4199" y2="246.118">
		<stop  offset="0" style="stop-color:#F47221"/>
		<stop  offset="0.4892" style="stop-color:#F89A1D"/>
		<stop  offset="1" style="stop-color:#F47221"/>
	</linearGradient>
	<path style="fill:url(#SVGID_00000134949218742197490120000000594031207316934820_);" d="M333.61,247.15
		c0-0.14,0.08-0.22,0.22-0.22h1.37c0.14,0,0.22,0.08,0.22,0.22v4.52c0,1.26,0.7,2.17,2,2.17c1.26,0,2.01-0.86,2.01-2.17v-4.52
		c0-0.14,0.08-0.22,0.22-0.22h1.37c0.14,0,0.22,0.08,0.22,0.22v4.54c0,2.2-1.46,3.87-3.82,3.87c-2.34,0-3.8-1.67-3.8-3.87V247.15z"
		/>
	
		<linearGradient id="SVGID_00000124845408645942471120000000646047926356427677_" gradientUnits="userSpaceOnUse" x1="349.7614" y1="255.911" x2="349.7614" y2="246.118">
		<stop  offset="0" style="stop-color:#F47221"/>
		<stop  offset="0.4892" style="stop-color:#F89A1D"/>
		<stop  offset="1" style="stop-color:#F47221"/>
	</linearGradient>
	<path style="fill:url(#SVGID_00000124845408645942471120000000646047926356427677_);" d="M350.12,246.93c1.89,0,3.34,1.34,3.34,3.1
		c0,1.12-0.61,2.09-1.5,2.6l1.34,2.57c0.06,0.11-0.02,0.22-0.14,0.22h-1.53c-0.13,0-0.22-0.05-0.28-0.16l-1.04-2.12
		c-0.11,0.02-0.19,0.02-0.25,0.02h-2.18v2.04c0,0.14-0.08,0.22-0.22,0.22h-1.37c-0.14,0-0.22-0.08-0.22-0.22v-8.06
		c0-0.14,0.08-0.22,0.22-0.22H350.12z M350.12,251.45c0.98,0,1.53-0.62,1.53-1.42c0-0.8-0.55-1.39-1.53-1.39h-2.25v2.81H350.12z"/>
	
		<linearGradient id="SVGID_00000031168047601020013350000007930516134996315800_" gradientUnits="userSpaceOnUse" x1="361.573" y1="255.911" x2="361.573" y2="246.118">
		<stop  offset="0" style="stop-color:#F47221"/>
		<stop  offset="0.4892" style="stop-color:#F89A1D"/>
		<stop  offset="1" style="stop-color:#F47221"/>
	</linearGradient>
	<path style="fill:url(#SVGID_00000031168047601020013350000007930516134996315800_);" d="M364.67,246.93
		c0.14,0,0.22,0.08,0.22,0.22v1.25c0,0.14-0.08,0.22-0.22,0.22h-4.72v1.59h4.15c0.14,0,0.22,0.08,0.22,0.22v1.25
		c0,0.14-0.08,0.22-0.22,0.22h-4.15v1.84h4.85c0.14,0,0.22,0.08,0.22,0.22v1.26c0,0.14-0.08,0.22-0.22,0.22h-6.44
		c-0.14,0-0.22-0.08-0.22-0.22v-8.06c0-0.13,0.11-0.22,0.22-0.22H364.67z"/>
	
		<linearGradient id="SVGID_00000172423773192805166630000012493073091816167330_" gradientUnits="userSpaceOnUse" x1="373.3847" y1="255.911" x2="373.3847" y2="246.118">
		<stop  offset="0" style="stop-color:#F47221"/>
		<stop  offset="0.4892" style="stop-color:#F89A1D"/>
		<stop  offset="1" style="stop-color:#F47221"/>
	</linearGradient>
	<path style="fill:url(#SVGID_00000172423773192805166630000012493073091816167330_);" d="M373.74,246.93c1.89,0,3.34,1.34,3.34,3.1
		c0,1.12-0.61,2.09-1.5,2.6l1.34,2.57c0.06,0.11-0.02,0.22-0.14,0.22h-1.53c-0.13,0-0.22-0.05-0.28-0.16l-1.04-2.12
		c-0.11,0.02-0.19,0.02-0.25,0.02h-2.18v2.04c0,0.14-0.08,0.22-0.22,0.22h-1.37c-0.14,0-0.22-0.08-0.22-0.22v-8.06
		c0-0.14,0.08-0.22,0.22-0.22H373.74z M373.74,251.45c0.98,0,1.53-0.62,1.53-1.42c0-0.8-0.55-1.39-1.53-1.39h-2.24v2.81H373.74z"/>
	
		<linearGradient id="SVGID_00000034051118931036901620000005422610157425241502_" gradientUnits="userSpaceOnUse" x1="392.8816" y1="255.911" x2="392.8816" y2="246.118">
		<stop  offset="0" style="stop-color:#F47221"/>
		<stop  offset="0.4892" style="stop-color:#F89A1D"/>
		<stop  offset="1" style="stop-color:#F47221"/>
	</linearGradient>
	<path style="fill:url(#SVGID_00000034051118931036901620000005422610157425241502_);" d="M395,253.74h-4.24l-0.59,1.5
		c-0.05,0.12-0.14,0.19-0.26,0.19h-1.54c-0.16,0-0.2-0.08-0.16-0.22l3.68-8.15c0.03-0.08,0.09-0.13,0.2-0.13h1.78
		c0.11,0,0.17,0.05,0.2,0.13l3.51,8.12c0.05,0.13-0.03,0.25-0.17,0.25h-1.48c-0.16,0-0.26-0.08-0.33-0.22L395,253.74z M391.41,252.1
		h2.96l-1.37-3.49h-0.17L391.41,252.1z"/>
	
		<linearGradient id="SVGID_00000126284393001229381770000004729143439398925711_" gradientUnits="userSpaceOnUse" x1="405.9037" y1="255.911" x2="405.9037" y2="246.118">
		<stop  offset="0" style="stop-color:#F47221"/>
		<stop  offset="0.4892" style="stop-color:#F89A1D"/>
		<stop  offset="1" style="stop-color:#F47221"/>
	</linearGradient>
	<path style="fill:url(#SVGID_00000126284393001229381770000004729143439398925711_);" d="M408.28,255.42
		c-0.11,0-0.19-0.03-0.23-0.11l-2.14-2.7l-2.15-3.04l-0.08,0.02l0.11,2.62v2.99c0,0.14-0.08,0.22-0.22,0.22h-1.32
		c-0.14,0-0.22-0.08-0.22-0.22v-8.06c0-0.14,0.08-0.22,0.22-0.22h1.2c0.12,0,0.22,0.03,0.3,0.11l2.34,2.96l1.96,2.77l0.08-0.02
		l-0.11-2.63v-2.98c0-0.14,0.08-0.22,0.22-0.22h1.32c0.14,0,0.22,0.08,0.22,0.22v8.06c0,0.14-0.08,0.22-0.22,0.22H408.28z"/>
	
		<linearGradient id="SVGID_00000179633811362091642230000007622599024073382293_" gradientUnits="userSpaceOnUse" x1="418.5641" y1="255.911" x2="418.5641" y2="246.118">
		<stop  offset="0" style="stop-color:#F47221"/>
		<stop  offset="0.4892" style="stop-color:#F89A1D"/>
		<stop  offset="1" style="stop-color:#F47221"/>
	</linearGradient>
	<path style="fill:url(#SVGID_00000179633811362091642230000007622599024073382293_);" d="M418.15,246.93
		c2.42,0,4.37,1.75,4.37,4.24c0,2.53-1.95,4.26-4.37,4.26h-3.32c-0.14,0-0.22-0.08-0.22-0.22v-8.06c0-0.14,0.08-0.22,0.22-0.22
		H418.15z M416.42,253.69h1.73c1.54,0,2.54-0.97,2.54-2.53c0-1.56-1-2.53-2.54-2.53h-1.73V253.69z"/>
	
		<linearGradient id="SVGID_00000076597195144810997690000005658983044985118642_" gradientUnits="userSpaceOnUse" x1="437.2761" y1="255.911" x2="437.2761" y2="246.118">
		<stop  offset="0" style="stop-color:#F47221"/>
		<stop  offset="0.4892" style="stop-color:#F89A1D"/>
		<stop  offset="1" style="stop-color:#F47221"/>
	</linearGradient>
	<path style="fill:url(#SVGID_00000076597195144810997690000005658983044985118642_);" d="M440.37,246.93
		c0.14,0,0.22,0.08,0.22,0.22v1.25c0,0.14-0.08,0.22-0.22,0.22h-4.72v1.59h4.15c0.14,0,0.22,0.08,0.22,0.22v1.25
		c0,0.14-0.08,0.22-0.22,0.22h-4.15v1.84h4.85c0.14,0,0.22,0.08,0.22,0.22v1.26c0,0.14-0.08,0.22-0.22,0.22h-6.44
		c-0.14,0-0.22-0.08-0.22-0.22v-8.06c0-0.13,0.11-0.22,0.22-0.22H440.37z"/>
	
		<linearGradient id="SVGID_00000052064089952644899620000004996710984327022251_" gradientUnits="userSpaceOnUse" x1="449.33" y1="255.911" x2="449.33" y2="246.118">
		<stop  offset="0" style="stop-color:#F47221"/>
		<stop  offset="0.4892" style="stop-color:#F89A1D"/>
		<stop  offset="1" style="stop-color:#F47221"/>
	</linearGradient>
	<path style="fill:url(#SVGID_00000052064089952644899620000004996710984327022251_);" d="M447.03,246.93c0.12,0,0.22,0.05,0.3,0.16
		l1.93,2.7h0.14l1.95-2.71c0.06-0.09,0.16-0.14,0.28-0.14h1.82c0.11,0,0.17,0.11,0.09,0.22l-3.01,3.83l3.21,4.15
		c0.11,0.14,0.06,0.3-0.11,0.3h-1.76c-0.16,0-0.28-0.06-0.36-0.17l-2.18-3.06h-0.14l-2.07,3.04c-0.09,0.12-0.22,0.19-0.39,0.19
		h-1.75c-0.14,0-0.17-0.12-0.09-0.23l3.23-4.16l-2.99-3.84c-0.08-0.11-0.05-0.26,0.12-0.26H447.03z"/>
	
		<linearGradient id="SVGID_00000099631064118279503850000010062395185590979732_" gradientUnits="userSpaceOnUse" x1="461.9435" y1="255.911" x2="461.9435" y2="246.118">
		<stop  offset="0" style="stop-color:#F47221"/>
		<stop  offset="0.4892" style="stop-color:#F89A1D"/>
		<stop  offset="1" style="stop-color:#F47221"/>
	</linearGradient>
	<path style="fill:url(#SVGID_00000099631064118279503850000010062395185590979732_);" d="M462.33,246.93c1.89,0,3.3,1.36,3.3,3.1
		c0,1.81-1.42,3.13-3.3,3.13h-2.26v2.04c0,0.14-0.08,0.22-0.22,0.22h-1.37c-0.14,0-0.22-0.08-0.22-0.22v-8.06
		c0-0.14,0.08-0.22,0.22-0.22H462.33z M462.33,251.45c0.95,0,1.5-0.59,1.5-1.42c0-0.81-0.55-1.39-1.5-1.39h-2.26v2.81H462.33z"/>
	
		<linearGradient id="SVGID_00000000906225269589728880000001797145201589645998_" gradientUnits="userSpaceOnUse" x1="474.1529" y1="255.911" x2="474.1529" y2="246.118">
		<stop  offset="0" style="stop-color:#F47221"/>
		<stop  offset="0.4892" style="stop-color:#F89A1D"/>
		<stop  offset="1" style="stop-color:#F47221"/>
	</linearGradient>
	<path style="fill:url(#SVGID_00000000906225269589728880000001797145201589645998_);" d="M474.16,246.8c2.45,0,4.46,1.89,4.46,4.38
		c0,2.51-2.01,4.37-4.46,4.37c-2.46,0-4.47-1.86-4.47-4.37C469.69,248.69,471.7,246.8,474.16,246.8z M471.51,251.18
		c0,1.54,1.09,2.67,2.65,2.67c1.54,0,2.63-1.12,2.63-2.67c0-1.57-1.09-2.68-2.63-2.68C472.6,248.5,471.51,249.61,471.51,251.18z"/>
	
		<linearGradient id="SVGID_00000088814709017522499150000009042057896663914647_" gradientUnits="userSpaceOnUse" x1="486.8377" y1="255.911" x2="486.8377" y2="246.118">
		<stop  offset="0" style="stop-color:#F47221"/>
		<stop  offset="0.4892" style="stop-color:#F89A1D"/>
		<stop  offset="1" style="stop-color:#F47221"/>
	</linearGradient>
	<path style="fill:url(#SVGID_00000088814709017522499150000009042057896663914647_);" d="M487.2,246.93c1.89,0,3.34,1.34,3.34,3.1
		c0,1.12-0.61,2.09-1.5,2.6l1.34,2.57c0.06,0.11-0.02,0.22-0.14,0.22h-1.53c-0.13,0-0.22-0.05-0.28-0.16l-1.04-2.12
		c-0.11,0.02-0.19,0.02-0.25,0.02h-2.18v2.04c0,0.14-0.08,0.22-0.22,0.22h-1.37c-0.14,0-0.22-0.08-0.22-0.22v-8.06
		c0-0.14,0.08-0.22,0.22-0.22H487.2z M487.2,251.45c0.98,0,1.53-0.62,1.53-1.42c0-0.8-0.55-1.39-1.53-1.39h-2.24v2.81H487.2z"/>
	
		<linearGradient id="SVGID_00000047740406235428084310000010988024088564148914_" gradientUnits="userSpaceOnUse" x1="498.2679" y1="255.911" x2="498.2679" y2="246.118">
		<stop  offset="0" style="stop-color:#F47221"/>
		<stop  offset="0.4892" style="stop-color:#F89A1D"/>
		<stop  offset="1" style="stop-color:#F47221"/>
	</linearGradient>
	<path style="fill:url(#SVGID_00000047740406235428084310000010988024088564148914_);" d="M501.88,246.93
		c0.14,0,0.22,0.08,0.22,0.22v1.28c0,0.14-0.08,0.22-0.22,0.22h-2.71v6.56c0,0.14-0.08,0.22-0.22,0.22h-1.37
		c-0.14,0-0.22-0.08-0.22-0.22v-6.56h-2.71c-0.14,0-0.22-0.08-0.22-0.22v-1.28c0-0.14,0.08-0.22,0.22-0.22H501.88z"/>
	
		<linearGradient id="SVGID_00000097482009100082543040000003986999205883151255_" gradientUnits="userSpaceOnUse" x1="509.752" y1="255.911" x2="509.752" y2="246.118">
		<stop  offset="0" style="stop-color:#F47221"/>
		<stop  offset="0.4892" style="stop-color:#F89A1D"/>
		<stop  offset="1" style="stop-color:#F47221"/>
	</linearGradient>
	<path style="fill:url(#SVGID_00000097482009100082543040000003986999205883151255_);" d="M512.85,246.93
		c0.14,0,0.22,0.08,0.22,0.22v1.25c0,0.14-0.08,0.22-0.22,0.22h-4.72v1.59h4.15c0.14,0,0.22,0.08,0.22,0.22v1.25
		c0,0.14-0.08,0.22-0.22,0.22h-4.15v1.84h4.85c0.14,0,0.22,0.08,0.22,0.22v1.26c0,0.14-0.08,0.22-0.22,0.22h-6.44
		c-0.14,0-0.22-0.08-0.22-0.22v-8.06c0-0.13,0.11-0.22,0.22-0.22H512.85z"/>
	
		<linearGradient id="SVGID_00000132062133015039507240000006803092470295527866_" gradientUnits="userSpaceOnUse" x1="521.5629" y1="255.911" x2="521.5629" y2="246.118">
		<stop  offset="0" style="stop-color:#F47221"/>
		<stop  offset="0.4892" style="stop-color:#F89A1D"/>
		<stop  offset="1" style="stop-color:#F47221"/>
	</linearGradient>
	<path style="fill:url(#SVGID_00000132062133015039507240000006803092470295527866_);" d="M521.92,246.93c1.89,0,3.34,1.34,3.34,3.1
		c0,1.12-0.61,2.09-1.5,2.6l1.34,2.57c0.06,0.11-0.02,0.22-0.14,0.22h-1.53c-0.13,0-0.22-0.05-0.28-0.16l-1.04-2.12
		c-0.11,0.02-0.19,0.02-0.25,0.02h-2.18v2.04c0,0.14-0.08,0.22-0.22,0.22h-1.37c-0.14,0-0.22-0.08-0.22-0.22v-8.06
		c0-0.14,0.08-0.22,0.22-0.22H521.92z M521.92,251.45c0.98,0,1.53-0.62,1.53-1.42c0-0.8-0.55-1.39-1.53-1.39h-2.25v2.81H521.92z"/>
	
		<linearGradient id="SVGID_00000048470255635789533020000004744917206510078371_" gradientUnits="userSpaceOnUse" x1="533.317" y1="255.911" x2="533.317" y2="246.118">
		<stop  offset="0" style="stop-color:#F47221"/>
		<stop  offset="0.4892" style="stop-color:#F89A1D"/>
		<stop  offset="1" style="stop-color:#F47221"/>
	</linearGradient>
	<path style="fill:url(#SVGID_00000048470255635789533020000004744917206510078371_);" d="M536.91,248.1
		c0.11,0.08,0.12,0.17,0.05,0.28l-0.78,0.97c-0.09,0.11-0.2,0.12-0.33,0.02c-0.7-0.56-1.61-0.87-2.68-0.87
		c-1.06,0-1.64,0.3-1.64,0.78c0,0.5,0.47,0.75,1.89,0.89c2.18,0.2,3.76,0.94,3.76,2.71c0,1.7-1.59,2.68-3.73,2.68
		c-1.56,0-2.78-0.37-3.9-1.31c-0.11-0.08-0.11-0.19-0.02-0.31l0.73-0.98c0.09-0.13,0.2-0.14,0.31-0.05c0.86,0.67,1.67,0.97,2.9,0.97
		c1.31,0,1.9-0.39,1.9-0.97c0-0.61-0.59-0.87-2.17-1.01c-2.09-0.17-3.48-0.79-3.48-2.56c0-1.54,1.48-2.53,3.52-2.53
		C534.63,246.8,535.91,247.27,536.91,248.1z"/>
</g>
</svg>
