<?xml version="1.0" encoding="utf-8"?>
<!-- Generator: Adobe Illustrator 25.4.1, SVG Export Plug-In . SVG Version: 6.00 Build 0)  -->
<svg version="1.1" id="Layer_1" xmlns="http://www.w3.org/2000/svg" xmlns:xlink="http://www.w3.org/1999/xlink" x="0px" y="0px"
	 viewBox="0 0 256 256" style="enable-background:new 0 0 256 256;" xml:space="preserve">
<style type="text/css">
	.st0{fill:#FFFFFF;}
	.st1{fill:none;stroke:#FFFFFF;stroke-miterlimit:10;}
</style>
<g>
	<path id="XMLID_00000057127345209035089570000010563617618207840170_" class="st0" d="M204.78,164.13v-54.94h-1.62v53.19
		l-4.32-4.67l-0.01,0.01l-0.01-0.01l-2.02,1.87c-0.93,0.87-0.95,2.34-0.03,3.22c0.83,0.81,2.15,0.83,3.02,0.06l0.88-0.79l7.03,7.6
		l-0.87,0.84c-0.87,0.85-0.88,2.26-0.01,3.12c0.82,0.81,2.12,0.84,2.98,0.07l0.89-0.79l0.02,0.02l1.19-1.1L204.78,164.13z"/>
	<path id="XMLID_00000058559382669212894040000000417842377119162250_" class="st0" d="M51.22,164.13v-54.94h1.62v53.19l4.32-4.67
		l0.01,0.01l0.01-0.01l2.02,1.87c0.93,0.87,0.95,2.34,0.03,3.22c-0.83,0.81-2.15,0.83-3.02,0.06l-0.88-0.79l-7.03,7.6l0.87,0.84
		c0.87,0.85,0.88,2.26,0.01,3.12c-0.82,0.81-2.12,0.84-2.98,0.07l-0.89-0.79l-0.02,0.02l-1.19-1.1L51.22,164.13z"/>
	
		<rect id="XMLID_00000089546125256827976060000004664694210226785190_" x="56.23" y="111.08" class="st0" width="5.1" height="5.95"/>
	
		<rect id="XMLID_00000162340853054919740640000012991478129940100234_" x="62.69" y="111.08" class="st0" width="5.1" height="5.95"/>
	
		<rect id="XMLID_00000096036196417542312980000013536195863834809516_" x="182.73" y="111.93" class="st0" width="18.87" height="5.1"/>
	
		<rect id="XMLID_00000044897772979718825340000013968437675706925460_" x="52.84" y="129.79" class="st0" width="19.67" height="2.38"/>
	<g>
		<path class="st0" d="M181.3,107.19h16.32c0.87,0,1.55-0.7,1.55-1.55c0-0.85-0.68-1.55-1.55-1.55H59.01c-0.85,0-1.55,0.7-1.55,1.55
			c0,0.85,0.7,1.55,1.55,1.55h15.68v-1.73H181.3V107.19z"/>
		<path class="st0" d="M47.3,88.91v24.2h27.39v-5.09H59.01c-1.29,0-2.36-1.07-2.36-2.38c0-1.31,1.07-2.36,2.36-2.36h138.61
			c1.31,0,2.38,1.05,2.38,2.36c0,1.31-1.07,2.38-2.38,2.38H181.3v5.09h27.39v-24.2H47.3z"/>
	</g>
	
		<rect id="XMLID_00000083774757063505866210000015592718969837283734_" x="64.08" y="79.79" class="st1" width="127.84" height="13.34"/>
	<polygon id="XMLID_00000111161994940487920630000008119718246275283840_" class="st0" points="120.69,124.89 104.82,124.89 
		122.85,156.05 140.81,124.89 134.33,124.89 122.81,145.07 114.4,130.48 117.7,130.48 	"/>
	<polygon id="XMLID_00000155839753787625534220000008176902209261062057_" class="st0" points="151.06,124.89 144.9,124.89 
		141.45,130.5 147.93,130.5 	"/>
	<polygon id="XMLID_00000022562641764651885730000005071756281155876256_" class="st0" points="146.07,133.65 139.73,133.65 
		124.73,159.52 127.9,165.07 	"/>
	<path id="XMLID_00000090290106603213681760000015517408952595585678_" class="st0" d="M128,114.42c-7.69,0-14.56,3.6-18.99,9.22
		h1.63c4.21-4.87,10.43-7.96,17.36-7.96c6.93,0,13.15,3.09,17.36,7.96h1.63C142.56,118.03,135.69,114.42,128,114.42z"/>
	<path id="XMLID_00000031187322758129238400000002102767262810837393_" class="st0" d="M150.2,129.01l-0.78,1.4
		c0.98,2.55,1.52,5.32,1.52,8.22c0,11.45-8.43,20.97-19.41,22.67l-0.79,1.37c12.06-1.36,21.46-11.62,21.46-24.04
		C152.2,135.2,151.49,131.96,150.2,129.01z"/>
	<path id="XMLID_00000114069715717119802890000000197315089779757205_" class="st0" d="M105.06,138.62c0-2.89,0.54-5.65,1.51-8.2
		l-0.79-1.37c-1.28,2.94-1.98,6.17-1.98,9.57c0,12.35,9.3,22.57,21.26,24.02l-0.79-1.38C113.39,159.48,105.06,150,105.06,138.62z"/>
	<path class="st0" d="M72.51,104.09v72.12h110.98v-72.12H72.51z M181.3,174.02H74.69v-68.56H181.3V174.02z"/>
</g>
</svg>
